<svg id="visual" viewBox="0 0 960 540" width="960" height="540" xmlns="http://www.w3.org/2000/svg" xmlns:xlink="http://www.w3.org/1999/xlink" version="1.1"><rect x="0" y="0" width="960" height="540" fill="#00335b"></rect><g fill="none" stroke="#cb0000" stroke-width="1"><circle r="11" cx="313" cy="433"></circle><circle r="2" cx="591" cy="270"></circle><circle r="8" cx="423" cy="534"></circle><circle r="8" cx="887" cy="534"></circle><circle r="5" cx="717" cy="241"></circle><circle r="8" cx="368" cy="13"></circle><circle r="3" cx="424" cy="485"></circle><circle r="8" cx="11" cy="260"></circle><circle r="9" cx="145" cy="215"></circle><circle r="6" cx="50" cy="56"></circle><circle r="9" cx="336" cy="92"></circle><circle r="4" cx="381" cy="387"></circle><circle r="7" cx="600" cy="519"></circle><circle r="7" cx="469" cy="331"></circle><circle r="1" cx="560" cy="108"></circle><circle r="2" cx="244" cy="311"></circle><circle r="8" cx="334" cy="58"></circle><circle r="5" cx="748" cy="42"></circle><circle r="6" cx="562" cy="347"></circle><circle r="7" cx="853" cy="511"></circle><circle r="1" cx="480" cy="181"></circle><circle r="4" cx="430" cy="438"></circle><circle r="6" cx="912" cy="105"></circle><circle r="2" cx="663" cy="516"></circle><circle r="1" cx="451" cy="295"></circle><circle r="4" cx="619" cy="56"></circle><circle r="3" cx="500" cy="319"></circle><circle r="2" cx="944" cy="238"></circle><circle r="4" cx="833" cy="159"></circle><circle r="7" cx="529" cy="174"></circle><circle r="3" cx="462" cy="252"></circle><circle r="8" cx="800" cy="57"></circle><circle r="3" cx="82" cy="517"></circle><circle r="5" cx="735" cy="385"></circle><circle r="7" cx="270" cy="462"></circle><circle r="1" cx="259" cy="418"></circle><circle r="3" cx="241" cy="246"></circle><circle r="6" cx="773" cy="366"></circle><circle r="6" cx="741" cy="171"></circle><circle r="4" cx="618" cy="379"></circle><circle r="2" cx="285" cy="319"></circle><circle r="3" cx="149" cy="514"></circle><circle r="1" cx="935" cy="430"></circle><circle r="8" cx="115" cy="68"></circle><circle r="4" cx="252" cy="42"></circle><circle r="2" cx="947" cy="338"></circle><circle r="6" cx="855" cy="100"></circle><circle r="5" cx="438" cy="238"></circle><circle r="9" cx="900" cy="340"></circle><circle r="7" cx="931" cy="502"></circle><circle r="2" cx="336" cy="465"></circle><circle r="6" cx="230" cy="486"></circle><circle r="8" cx="784" cy="525"></circle><circle r="3" cx="344" cy="393"></circle><circle r="4" cx="201" cy="33"></circle><circle r="5" cx="27" cy="414"></circle><circle r="9" cx="316" cy="24"></circle><circle r="3" cx="391" cy="285"></circle><circle r="8" cx="248" cy="119"></circle><circle r="5" cx="481" cy="372"></circle><circle r="4" cx="800" cy="98"></circle><circle r="7" cx="826" cy="37"></circle><circle r="1" cx="712" cy="438"></circle><circle r="2" cx="153" cy="372"></circle><circle r="2" cx="717" cy="182"></circle><circle r="5" cx="603" cy="27"></circle><circle r="9" cx="469" cy="405"></circle><circle r="4" cx="654" cy="42"></circle><circle r="8" cx="228" cy="58"></circle><circle r="3" cx="298" cy="227"></circle><circle r="4" cx="817" cy="517"></circle><circle r="6" cx="875" cy="288"></circle><circle r="8" cx="88" cy="243"></circle><circle r="9" cx="287" cy="401"></circle><circle r="6" cx="23" cy="183"></circle><circle r="1" cx="220" cy="339"></circle><circle r="3" cx="87" cy="302"></circle><circle r="1" cx="91" cy="214"></circle><circle r="5" cx="374" cy="323"></circle><circle r="7" cx="787" cy="472"></circle><circle r="9" cx="352" cy="486"></circle><circle r="5" cx="763" cy="405"></circle><circle r="5" cx="746" cy="358"></circle><circle r="4" cx="49" cy="92"></circle><circle r="3" cx="405" cy="407"></circle><circle r="5" cx="252" cy="361"></circle><circle r="6" cx="612" cy="343"></circle><circle r="5" cx="615" cy="447"></circle><circle r="1" cx="397" cy="355"></circle><circle r="8" cx="954" cy="157"></circle><circle r="4" cx="270" cy="277"></circle><circle r="7" cx="285" cy="97"></circle><circle r="2" cx="542" cy="127"></circle><circle r="6" cx="838" cy="399"></circle><circle r="8" cx="804" cy="251"></circle><circle r="6" cx="371" cy="426"></circle><circle r="4" cx="764" cy="244"></circle><circle r="6" cx="306" cy="536"></circle><circle r="8" cx="911" cy="394"></circle><circle r="2" cx="654" cy="231"></circle><circle r="7" cx="586" cy="449"></circle><circle r="5" cx="328" cy="226"></circle><circle r="7" cx="714" cy="523"></circle><circle r="6" cx="345" cy="532"></circle><circle r="5" cx="11" cy="515"></circle><circle r="5" cx="129" cy="452"></circle><circle r="8" cx="810" cy="390"></circle><circle r="1" cx="36" cy="523"></circle><circle r="9" cx="470" cy="503"></circle><circle r="3" cx="939" cy="387"></circle><circle r="7" cx="45" cy="345"></circle><circle r="8" cx="701" cy="369"></circle><circle r="6" cx="122" cy="523"></circle><circle r="1" cx="42" cy="242"></circle><circle r="6" cx="585" cy="221"></circle><circle r="8" cx="195" cy="297"></circle><circle r="2" cx="12" cy="307"></circle><circle r="7" cx="269" cy="506"></circle><circle r="6" cx="659" cy="325"></circle><circle r="3" cx="116" cy="198"></circle><circle r="7" cx="159" cy="297"></circle><circle r="1" cx="674" cy="489"></circle><circle r="3" cx="892" cy="143"></circle><circle r="9" cx="398" cy="116"></circle><circle r="3" cx="925" cy="213"></circle><circle r="7" cx="101" cy="142"></circle><circle r="8" cx="348" cy="131"></circle><circle r="6" cx="885" cy="501"></circle><circle r="9" cx="148" cy="116"></circle><circle r="5" cx="292" cy="144"></circle><circle r="6" cx="291" cy="15"></circle><circle r="1" cx="338" cy="160"></circle><circle r="8" cx="148" cy="479"></circle><circle r="2" cx="675" cy="178"></circle><circle r="9" cx="228" cy="161"></circle><circle r="8" cx="652" cy="117"></circle><circle r="5" cx="660" cy="299"></circle><circle r="9" cx="495" cy="132"></circle><circle r="6" cx="838" cy="327"></circle><circle r="6" cx="826" cy="301"></circle><circle r="9" cx="91" cy="350"></circle><circle r="3" cx="109" cy="275"></circle><circle r="6" cx="448" cy="137"></circle><circle r="7" cx="111" cy="31"></circle><circle r="8" cx="740" cy="309"></circle><circle r="7" cx="721" cy="343"></circle><circle r="4" cx="562" cy="439"></circle><circle r="8" cx="176" cy="272"></circle><circle r="7" cx="163" cy="137"></circle><circle r="4" cx="423" cy="264"></circle><circle r="9" cx="517" cy="367"></circle><circle r="3" cx="539" cy="247"></circle><circle r="1" cx="214" cy="255"></circle><circle r="2" cx="136" cy="260"></circle><circle r="4" cx="811" cy="279"></circle><circle r="8" cx="801" cy="432"></circle><circle r="4" cx="258" cy="149"></circle><circle r="6" cx="519" cy="209"></circle><circle r="2" cx="440" cy="203"></circle><circle r="6" cx="919" cy="456"></circle><circle r="3" cx="487" cy="283"></circle><circle r="4" cx="750" cy="496"></circle><circle r="9" cx="707" cy="14"></circle><circle r="9" cx="936" cy="133"></circle><circle r="7" cx="207" cy="408"></circle><circle r="3" cx="55" cy="470"></circle><circle r="1" cx="63" cy="416"></circle><circle r="1" cx="299" cy="201"></circle><circle r="5" cx="125" cy="4"></circle><circle r="8" cx="607" cy="292"></circle><circle r="4" cx="794" cy="319"></circle><circle r="3" cx="220" cy="113"></circle><circle r="1" cx="61" cy="210"></circle><circle r="5" cx="88" cy="184"></circle><circle r="2" cx="950" cy="57"></circle><circle r="1" cx="604" cy="148"></circle><circle r="3" cx="208" cy="192"></circle><circle r="3" cx="14" cy="380"></circle><circle r="5" cx="834" cy="465"></circle><circle r="6" cx="434" cy="73"></circle><circle r="3" cx="407" cy="222"></circle><circle r="5" cx="894" cy="33"></circle><circle r="4" cx="36" cy="494"></circle><circle r="8" cx="580" cy="43"></circle><circle r="3" cx="853" cy="240"></circle><circle r="6" cx="771" cy="159"></circle><circle r="1" cx="527" cy="486"></circle><circle r="6" cx="698" cy="276"></circle><circle r="2" cx="408" cy="178"></circle><circle r="1" cx="544" cy="46"></circle><circle r="8" cx="205" cy="84"></circle><circle r="1" cx="930" cy="360"></circle><circle r="3" cx="326" cy="279"></circle><circle r="8" cx="272" cy="238"></circle><circle r="6" cx="850" cy="429"></circle><circle r="9" cx="875" cy="402"></circle><circle r="6" cx="70" cy="108"></circle><circle r="9" cx="847" cy="197"></circle><circle r="2" cx="359" cy="189"></circle><circle r="9" cx="603" cy="89"></circle><circle r="5" cx="857" cy="266"></circle><circle r="3" cx="458" cy="449"></circle><circle r="3" cx="156" cy="29"></circle><circle r="8" cx="906" cy="283"></circle><circle r="5" cx="404" cy="147"></circle><circle r="9" cx="218" cy="5"></circle><circle r="5" cx="861" cy="157"></circle><circle r="8" cx="320" cy="361"></circle><circle r="8" cx="349" cy="347"></circle><circle r="4" cx="200" cy="145"></circle><circle r="2" cx="119" cy="316"></circle><circle r="1" cx="551" cy="402"></circle><circle r="4" cx="817" cy="198"></circle><circle r="6" cx="425" cy="111"></circle><circle r="8" cx="522" cy="99"></circle><circle r="6" cx="648" cy="399"></circle><circle r="4" cx="943" cy="9"></circle><circle r="9" cx="681" cy="43"></circle><circle r="1" cx="44" cy="128"></circle><circle r="7" cx="527" cy="68"></circle><circle r="3" cx="675" cy="79"></circle><circle r="7" cx="22" cy="66"></circle><circle r="3" cx="503" cy="458"></circle><circle r="5" cx="155" cy="185"></circle><circle r="1" cx="678" cy="134"></circle><circle r="6" cx="198" cy="474"></circle><circle r="9" cx="944" cy="288"></circle><circle r="4" cx="363" cy="248"></circle><circle r="5" cx="706" cy="464"></circle><circle r="1" cx="376" cy="69"></circle><circle r="5" cx="170" cy="419"></circle><circle r="1" cx="591" cy="181"></circle><circle r="7" cx="245" cy="86"></circle><circle r="6" cx="13" cy="129"></circle><circle r="5" cx="48" cy="27"></circle><circle r="7" cx="10" cy="13"></circle><circle r="3" cx="866" cy="466"></circle><circle r="7" cx="398" cy="449"></circle><circle r="3" cx="173" cy="343"></circle><circle r="3" cx="194" cy="431"></circle><circle r="5" cx="430" cy="378"></circle><circle r="6" cx="391" cy="527"></circle><circle r="5" cx="454" cy="39"></circle><circle r="7" cx="298" cy="286"></circle><circle r="9" cx="752" cy="204"></circle><circle r="4" cx="172" cy="99"></circle><circle r="6" cx="738" cy="282"></circle><circle r="4" cx="287" cy="487"></circle><circle r="2" cx="893" cy="314"></circle><circle r="8" cx="920" cy="165"></circle><circle r="5" cx="780" cy="271"></circle><circle r="5" cx="5" cy="481"></circle><circle r="1" cx="566" cy="503"></circle><circle r="1" cx="764" cy="63"></circle><circle r="7" cx="378" cy="38"></circle><circle r="5" cx="18" cy="39"></circle><circle r="2" cx="873" cy="374"></circle><circle r="2" cx="665" cy="373"></circle><circle r="2" cx="427" cy="27"></circle><circle r="5" cx="535" cy="280"></circle><circle r="7" cx="929" cy="530"></circle><circle r="2" cx="179" cy="13"></circle><circle r="6" cx="333" cy="318"></circle><circle r="6" cx="471" cy="112"></circle><circle r="6" cx="473" cy="18"></circle><circle r="9" cx="909" cy="9"></circle><circle r="2" cx="704" cy="63"></circle><circle r="2" cx="750" cy="526"></circle><circle r="2" cx="739" cy="108"></circle><circle r="5" cx="855" cy="66"></circle><circle r="5" cx="618" cy="223"></circle><circle r="6" cx="140" cy="427"></circle><circle r="9" cx="81" cy="384"></circle><circle r="2" cx="514" cy="401"></circle><circle r="8" cx="529" cy="527"></circle><circle r="1" cx="856" cy="35"></circle><circle r="3" cx="674" cy="460"></circle><circle r="6" cx="192" cy="531"></circle><circle r="4" cx="792" cy="210"></circle><circle r="7" cx="451" cy="172"></circle><circle r="1" cx="524" cy="308"></circle><circle r="7" cx="905" cy="367"></circle><circle r="4" cx="551" cy="472"></circle><circle r="9" cx="491" cy="60"></circle><circle r="2" cx="956" cy="487"></circle><circle r="3" cx="583" cy="483"></circle><circle r="2" cx="608" cy="419"></circle><circle r="3" cx="952" cy="101"></circle><circle r="2" cx="87" cy="75"></circle><circle r="3" cx="297" cy="50"></circle><circle r="3" cx="170" cy="60"></circle><circle r="6" cx="379" cy="487"></circle><circle r="5" cx="649" cy="177"></circle><circle r="4" cx="179" cy="230"></circle><circle r="2" cx="312" cy="175"></circle><circle r="9" cx="109" cy="474"></circle><circle r="9" cx="450" cy="536"></circle><circle r="9" cx="516" cy="148"></circle><circle r="9" cx="890" cy="196"></circle><circle r="5" cx="566" cy="315"></circle><circle r="5" cx="508" cy="505"></circle><circle r="4" cx="751" cy="468"></circle><circle r="1" cx="142" cy="78"></circle><circle r="4" cx="681" cy="347"></circle><circle r="1" cx="622" cy="108"></circle><circle r="8" cx="42" cy="378"></circle><circle r="7" cx="630" cy="468"></circle><circle r="4" cx="808" cy="137"></circle><circle r="7" cx="613" cy="250"></circle><circle r="5" cx="770" cy="91"></circle><circle r="8" cx="693" cy="111"></circle><circle r="6" cx="828" cy="91"></circle><circle r="9" cx="68" cy="283"></circle><circle r="3" cx="551" cy="9"></circle><circle r="3" cx="190" cy="366"></circle><circle r="3" cx="591" cy="396"></circle><circle r="8" cx="686" cy="235"></circle><circle r="9" cx="243" cy="205"></circle><circle r="9" cx="486" cy="214"></circle><circle r="9" cx="108" cy="398"></circle><circle r="5" cx="764" cy="333"></circle><circle r="8" cx="270" cy="194"></circle><circle r="3" cx="775" cy="36"></circle><circle r="9" cx="516" cy="12"></circle><circle r="8" cx="223" cy="531"></circle><circle r="3" cx="332" cy="4"></circle><circle r="2" cx="29" cy="456"></circle><circle r="2" cx="844" cy="365"></circle><circle r="4" cx="40" cy="280"></circle><circle r="5" cx="531" cy="423"></circle><circle r="2" cx="220" cy="374"></circle><circle r="6" cx="645" cy="276"></circle><circle r="7" cx="422" cy="318"></circle><circle r="1" cx="248" cy="178"></circle><circle r="8" cx="280" cy="537"></circle><circle r="6" cx="456" cy="353"></circle><circle r="6" cx="15" cy="337"></circle><circle r="7" cx="668" cy="429"></circle><circle r="4" cx="352" cy="36"></circle><circle r="4" cx="350" cy="442"></circle><circle r="3" cx="770" cy="9"></circle><circle r="9" cx="214" cy="225"></circle><circle r="1" cx="252" cy="393"></circle><circle r="6" cx="496" cy="88"></circle><circle r="3" cx="75" cy="21"></circle><circle r="1" cx="727" cy="213"></circle><circle r="6" cx="719" cy="406"></circle><circle r="9" cx="925" cy="310"></circle><circle r="2" cx="79" cy="446"></circle><circle r="3" cx="575" cy="532"></circle><circle r="9" cx="881" cy="249"></circle><circle r="7" cx="498" cy="538"></circle><circle r="3" cx="953" cy="460"></circle><circle r="4" cx="59" cy="150"></circle><circle r="6" cx="627" cy="192"></circle><circle r="3" cx="182" cy="168"></circle><circle r="9" cx="565" cy="161"></circle><circle r="1" cx="3" cy="84"></circle><circle r="5" cx="690" cy="396"></circle><circle r="5" cx="167" cy="450"></circle><circle r="1" cx="145" cy="331"></circle><circle r="5" cx="647" cy="353"></circle><circle r="9" cx="891" cy="432"></circle><circle r="1" cx="497" cy="256"></circle><circle r="2" cx="767" cy="435"></circle><circle r="3" cx="692" cy="201"></circle><circle r="5" cx="562" cy="77"></circle><circle r="6" cx="96" cy="421"></circle><circle r="2" cx="634" cy="428"></circle><circle r="4" cx="820" cy="4"></circle><circle r="4" cx="707" cy="140"></circle><circle r="3" cx="634" cy="81"></circle><circle r="9" cx="907" cy="80"></circle><circle r="5" cx="559" cy="207"></circle><circle r="3" cx="405" cy="64"></circle><circle r="6" cx="634" cy="3"></circle><circle r="6" cx="22" cy="223"></circle><circle r="4" cx="49" cy="182"></circle><circle r="4" cx="319" cy="128"></circle><circle r="8" cx="220" cy="281"></circle><circle r="8" cx="814" cy="362"></circle><circle r="1" cx="932" cy="33"></circle><circle r="4" cx="634" cy="536"></circle><circle r="7" cx="813" cy="227"></circle><circle r="5" cx="377" cy="169"></circle><circle r="4" cx="317" cy="396"></circle><circle r="3" cx="759" cy="134"></circle><circle r="4" cx="854" cy="4"></circle><circle r="9" cx="662" cy="7"></circle><circle r="4" cx="185" cy="205"></circle><circle r="9" cx="495" cy="349"></circle><circle r="6" cx="50" cy="310"></circle><circle r="2" cx="948" cy="196"></circle><circle r="6" cx="629" cy="139"></circle><circle r="5" cx="829" cy="65"></circle><circle r="3" cx="389" cy="247"></circle><circle r="5" cx="842" cy="131"></circle><circle r="6" cx="459" cy="85"></circle><circle r="2" cx="119" cy="111"></circle><circle r="5" cx="245" cy="452"></circle><circle r="6" cx="178" cy="318"></circle><circle r="5" cx="538" cy="332"></circle><circle r="2" cx="628" cy="308"></circle><circle r="4" cx="304" cy="339"></circle><circle r="2" cx="574" cy="249"></circle><circle r="9" cx="397" cy="6"></circle><circle r="2" cx="476" cy="468"></circle><circle r="1" cx="282" cy="168"></circle><circle r="9" cx="367" cy="111"></circle><circle r="3" cx="377" cy="138"></circle><circle r="8" cx="875" cy="122"></circle><circle r="5" cx="912" cy="253"></circle><circle r="9" cx="739" cy="434"></circle><circle r="8" cx="734" cy="3"></circle><circle r="5" cx="137" cy="46"></circle><circle r="6" cx="590" cy="113"></circle><circle r="6" cx="175" cy="498"></circle><circle r="4" cx="935" cy="81"></circle><circle r="9" cx="876" cy="222"></circle><circle r="8" cx="120" cy="373"></circle><circle r="1" cx="724" cy="85"></circle><circle r="9" cx="362" cy="510"></circle><circle r="8" cx="722" cy="36"></circle><circle r="4" cx="807" cy="164"></circle><circle r="2" cx="227" cy="424"></circle><circle r="3" cx="177" cy="392"></circle><circle r="1" cx="78" cy="51"></circle><circle r="7" cx="586" cy="359"></circle><circle r="5" cx="700" cy="323"></circle><circle r="9" cx="105" cy="502"></circle><circle r="5" cx="116" cy="170"></circle><circle r="9" cx="953" cy="520"></circle><circle r="7" cx="881" cy="1"></circle><circle r="2" cx="884" cy="168"></circle><circle r="8" cx="212" cy="506"></circle><circle r="7" cx="319" cy="488"></circle><circle r="5" cx="708" cy="493"></circle><circle r="1" cx="276" cy="71"></circle><circle r="4" cx="561" cy="276"></circle><circle r="4" cx="795" cy="500"></circle><circle r="8" cx="957" cy="368"></circle><circle r="8" cx="72" cy="329"></circle><circle r="2" cx="869" cy="337"></circle><circle r="6" cx="292" cy="261"></circle><circle r="7" cx="139" cy="153"></circle><circle r="6" cx="124" cy="235"></circle><circle r="8" cx="83" cy="473"></circle><circle r="3" cx="323" cy="252"></circle><circle r="9" cx="471" cy="152"></circle><circle r="8" cx="440" cy="507"></circle><circle r="3" cx="633" cy="510"></circle><circle r="2" cx="514" cy="41"></circle><circle r="5" cx="452" cy="481"></circle><circle r="3" cx="352" cy="290"></circle><circle r="9" cx="283" cy="356"></circle><circle r="4" cx="490" cy="423"></circle><circle r="3" cx="735" cy="144"></circle><circle r="2" cx="245" cy="16"></circle><circle r="8" cx="611" cy="493"></circle><circle r="4" cx="908" cy="489"></circle><circle r="8" cx="2" cy="426"></circle><circle r="6" cx="10" cy="158"></circle><circle r="1" cx="390" cy="198"></circle><circle r="7" cx="578" cy="3"></circle><circle r="9" cx="879" cy="90"></circle><circle r="3" cx="274" cy="121"></circle><circle r="1" cx="624" cy="166"></circle><circle r="9" cx="800" cy="29"></circle><circle r="5" cx="768" cy="295"></circle><circle r="1" cx="219" cy="452"></circle><circle r="6" cx="357" cy="222"></circle><circle r="1" cx="311" cy="77"></circle><circle r="9" cx="431" cy="346"></circle><circle r="9" cx="118" cy="344"></circle><circle r="6" cx="250" cy="528"></circle><circle r="1" cx="884" cy="58"></circle><circle r="7" cx="556" cy="376"></circle><circle r="1" cx="40" cy="1"></circle><circle r="7" cx="848" cy="537"></circle><circle r="9" cx="587" cy="331"></circle><circle r="1" cx="443" cy="413"></circle><circle r="3" cx="306" cy="462"></circle><circle r="8" cx="689" cy="536"></circle><circle r="8" cx="135" cy="396"></circle><circle r="6" cx="957" cy="408"></circle><circle r="2" cx="297" cy="378"></circle><circle r="7" cx="669" cy="260"></circle><circle r="5" cx="371" cy="461"></circle><circle r="7" cx="821" cy="491"></circle><circle r="8" cx="161" cy="250"></circle><circle r="2" cx="572" cy="135"></circle><circle r="6" cx="913" cy="51"></circle><circle r="8" cx="532" cy="454"></circle><circle r="7" cx="268" cy="3"></circle><circle r="6" cx="257" cy="334"></circle><circle r="2" cx="650" cy="450"></circle><circle r="8" cx="955" cy="261"></circle><circle r="2" cx="740" cy="256"></circle><circle r="6" cx="784" cy="119"></circle><circle r="7" cx="775" cy="189"></circle><circle r="4" cx="333" cy="194"></circle><circle r="9" cx="153" cy="2"></circle><circle r="9" cx="98" cy="538"></circle><circle r="5" cx="281" cy="434"></circle><circle r="6" cx="460" cy="224"></circle><circle r="6" cx="65" cy="364"></circle><circle r="6" cx="902" cy="229"></circle><circle r="3" cx="893" cy="463"></circle><circle r="4" cx="790" cy="406"></circle><circle r="1" cx="831" cy="257"></circle><circle r="4" cx="164" cy="536"></circle><circle r="1" cx="656" cy="149"></circle><circle r="5" cx="663" cy="204"></circle><circle r="3" cx="712" cy="298"></circle><circle r="1" cx="323" cy="514"></circle><circle r="2" cx="446" cy="7"></circle><circle r="4" cx="92" cy="1"></circle><circle r="8" cx="407" cy="505"></circle><circle r="2" cx="190" cy="118"></circle><circle r="7" cx="65" cy="254"></circle><circle r="9" cx="63" cy="496"></circle><circle r="2" cx="60" cy="535"></circle><circle r="5" cx="406" cy="90"></circle><circle r="9" cx="582" cy="421"></circle><circle r="6" cx="956" cy="312"></circle><circle r="6" cx="420" cy="289"></circle><circle r="5" cx="792" cy="346"></circle><circle r="6" cx="631" cy="29"></circle><circle r="1" cx="429" cy="155"></circle><circle r="6" cx="863" cy="312"></circle><circle r="2" cx="24" cy="103"></circle><circle r="2" cx="47" cy="437"></circle><circle r="5" cx="2" cy="198"></circle><circle r="1" cx="372" cy="359"></circle></g></svg>